<svg id="Layer_1" data-name="Layer 1" xmlns="http://www.w3.org/2000/svg" viewBox="0 0 801 800"><defs><style>.cls-1{fill:#fff;}.cls-2{fill:#21b1ff;}.cls-3{fill:#007aff;}</style></defs><path class="cls-1" d="M563.33,298.31V274.62c0-5.61-.2-10.3-.62-14.76-3.9-41.31-20.83-76.18-50.32-103.63-31.89-29.68-68.78-44.73-109.65-44.73a181.42,181.42,0,0,0-38.32,4.24C291.06,131.6,237.8,198.1,237.8,273.85v20.2c0,33.31,0,67.76,0,101.64,0,.2-.05.5-.08.73-.32,2.63-1.1,9.14,1.92,15.5a21.2,21.2,0,0,0,5.55,7.15,22.26,22.26,0,0,0,11.51,5.07,24.59,24.59,0,0,0,3.41.23,37.48,37.48,0,0,0,7.39-.87l1-.19c22.65-2.66,41.81-12.16,57-28.22a102.89,102.89,0,0,0,13.45-17.75,119.68,119.68,0,0,0,12.23-28.4,174.43,174.43,0,0,0,5.28-26.13c1.61-12.2,1.55-24,1.48-35.4,0-3.64,0-7.08,0-10.54a64.32,64.32,0,0,1,.9-10.47c3.39-19.43,21.64-34.66,41.56-34.65a37.07,37.07,0,0,1,6.41.55c21.81,3.81,36.47,21.3,36.47,43.53V405.07a19,19,0,0,0,6.48,14.28,3.4,3.4,0,0,0,.29.26,19,19,0,0,0,12.23,4.46,19.81,19.81,0,0,0,3.25-.28l.28-.05.26-.05a17.21,17.21,0,0,0,2.38-.58A19,19,0,0,0,481,410.24l.48-1.7c.3-1,.58-2,.85-2.92,3.88-12.42,10.51-21.58,20.26-28,10.91-7.19,23.6-10.68,38.77-10.68h.14a24.56,24.56,0,0,0,2.91-.16,21,21,0,0,0,12.86-6,19.85,19.85,0,0,0,4.09-5.9,23.49,23.49,0,0,0,2-9.93C563.33,329.42,563.33,313.6,563.33,298.31ZM464.22,400c-.52,1.66-1,3.34-1.45,5l-.54.1V275.83c0-31.57-21.19-56.83-52.2-62.25a56.86,56.86,0,0,0-6.06-.72c-1.21-.07-2.41-.11-3.61-.11h0a57.11,57.11,0,0,0-7.64.51l-.72.1c-.75.11-1.49.23-2.24.37s-1.71.34-2.57.53a62.07,62.07,0,0,0-7.87,2.4c-1.09.41-2.16.85-3.22,1.33l-.25.11c-.63.28-1.26.58-1.88.89-.27.12-.53.25-.79.39-.54.27-1.08.55-1.61.85-1,.53-1.95,1.09-2.9,1.68-.66.4-1.32.82-2,1.25-1.11.73-2.19,1.5-3.24,2.3-.7.53-1.39,1.08-2.06,1.64a60.53,60.53,0,0,0-4.87,4.47c-.31.31-.62.63-.92,1h0c-.6.64-1.19,1.29-1.77,2s-1.14,1.35-1.69,2q-1.65,2.07-3.12,4.29c-1,1.48-1.9,3-2.74,4.56-.42.78-.83,1.57-1.22,2.37q-1.17,2.42-2.12,4.92-.48,1.26-.9,2.55a57.66,57.66,0,0,0-2,7.92,84.23,84.23,0,0,0-1.18,13.55c-.13,14.56.61,29.13-1.3,43.64a155.2,155.2,0,0,1-5.23,25c-4.1,13.43-10.5,25.88-20.71,36.69-12.31,13-27.64,20.32-45.44,22.4-1.93.23-4.18.92-6.07.92a4,4,0,0,1-2.64-.8c-1.24-1-1.21-2.9-1-4.86.13-1.26.33-2.55.33-3.7q-.07-61.08,0-122.16c0-66.52,46.61-125.48,111.64-139.54q6.6-1.42,13.08-2.32c1.44-.2,2.87-.38,4.3-.54a154.5,154.5,0,0,1,16.92-.95q6.7,0,13.27.62,3.27.3,6.51.77a133.51,133.51,0,0,1,49.11,17.32c1.93,1.14,3.84,2.32,5.74,3.56a163.73,163.73,0,0,1,22.07,17.36c26.47,24.64,41,55.49,44.35,91.51.41,4.34.53,8.66.54,13,0,22.66,0,45.32,0,68V345c0,1.65-.2,2.47-1.34,2.78l-.2,0-.2,0a4.58,4.58,0,0,1-.56.06h-.7A104.68,104.68,0,0,0,526.27,349c-.8.11-1.6.24-2.39.38a83.31,83.31,0,0,0-23.15,7.45c-1,.48-1.93,1-2.89,1.5l-1.44.81c-.95.55-1.9,1.12-2.84,1.71-.47.29-.93.59-1.4.9C478.11,371,469.18,384.05,464.22,400Z"/><path class="cls-2" d="M544.38,345c0,1.65-.2,2.47-1.34,2.78l-.2,0-.2,0a4.58,4.58,0,0,1-.56.06h-.7A104.68,104.68,0,0,0,526.27,349c-.8.11-1.6.24-2.39.38a83.31,83.31,0,0,0-23.15,7.45c-1,.48-1.93,1-2.89,1.5l-1.44.81c-.95.54-1.9,1.11-2.84,1.71-.47.29-.93.59-1.4.9-14.05,9.24-23,22.3-27.94,38.21-.52,1.66-1,3.34-1.45,5l-.54.1V275.83c0-31.57-21.19-56.83-52.2-62.25a56.86,56.86,0,0,0-6.06-.72c-1.21-.08-2.41-.11-3.61-.11h0a57.11,57.11,0,0,0-7.64.51l-.72.1c-.75.11-1.49.23-2.24.37s-1.71.34-2.57.53a62.07,62.07,0,0,0-7.87,2.4c-1.09.41-2.16.85-3.22,1.33l-.25.11c-.63.28-1.26.58-1.88.89-.27.12-.53.25-.79.39-.54.27-1.08.55-1.61.85-1,.53-1.95,1.09-2.9,1.68-.66.4-1.32.82-2,1.25-1.11.73-2.19,1.5-3.24,2.3-.7.53-1.39,1.08-2.06,1.64a60.53,60.53,0,0,0-4.87,4.47c-.31.31-.62.63-.92,1h0c-.6.64-1.19,1.29-1.77,2s-1.14,1.35-1.69,2q-1.65,2.07-3.12,4.29c-1,1.48-1.9,3-2.74,4.56-.42.78-.83,1.57-1.22,2.37q-1.17,2.42-2.12,4.92-.48,1.26-.9,2.55a57.66,57.66,0,0,0-2,7.92,84.23,84.23,0,0,0-1.18,13.55c-.13,14.56.61,29.13-1.3,43.64a155.2,155.2,0,0,1-5.23,25c-4.1,13.43-10.5,25.88-20.71,36.69-12.31,13-27.64,20.32-45.44,22.4-1.93.23-4.18.92-6.07.92a4,4,0,0,1-2.64-.8c-1.24-1-1.21-2.9-1-4.86.13-1.26.33-2.55.33-3.7q-.07-61.08,0-122.16c0-66.52,46.61-125.48,111.64-139.54q6.6-1.42,13.08-2.32c1.44-.2,2.87-.38,4.3-.54a154.5,154.5,0,0,1,16.92-.95q6.7,0,13.27.62,3.27.3,6.51.77a133.51,133.51,0,0,1,49.11,17.32q2.89,1.71,5.74,3.56a163.73,163.73,0,0,1,22.07,17.36c26.47,24.64,41,55.49,44.35,91.51.41,4.34.53,8.66.54,13C544.35,298.1,544.31,321.56,544.38,345Z"/><path class="cls-3" d="M443.18,505.84q0-12.24.07-24.57A37.17,37.17,0,0,1,443.18,505.84Z"/><path class="cls-1" d="M464.44,571.84a20.56,20.56,0,0,0-6.73-17.59A19,19,0,0,0,445,549.4c-.57,0-1.14,0-1.71.08a19,19,0,0,0-8.48,2.88,21.42,21.42,0,0,0-3.81,2.92c-9,8.73-19,13-30.57,13a60.66,60.66,0,0,1-14.85-2c-9-2.28-16-6.81-20.77-13.08,4.66,0,9.38.05,14.06.05,11.07,0,20.16-.12,28.59-.39,13.89-.44,26.16-5.18,35.81-13.52a60.4,60.4,0,0,0,15.93-22.24,65.78,65.78,0,0,0,3-8.44,55.83,55.83,0,0,0,.1-30.2v0a61.92,61.92,0,0,0-12.12-22.65,58.46,58.46,0,0,0-5.93-6.23c-10.79-9.82-24.69-15-40.65-15-9.27,0-18.34-.05-27-.05-6.32,0-12.57,0-18.71,0,0-9.89,0-19.76,0-29.42q0-7,0-14V363.47a19,19,0,0,0-16-18.77l-.57-.09a19.75,19.75,0,0,0-2.95-.23,18.76,18.76,0,0,0-6,1c-4.1,13.43-10.5,25.88-20.71,36.69-12.31,13-27.64,20.32-45.44,22.4-1.93.23-4.18.92-6.07.92a4,4,0,0,1-2.64-.8c-1.24-1-1.21-2.9-1-4.86-7.92,1.08-13.92,5.55-16.83,12.21a24.6,24.6,0,0,0-1.94,9.93c.05,18.55.05,37.43.06,55.68,0,15.38,0,31.28,0,46.93a148.23,148.23,0,0,0,1,17.69c4.88,40.52,21.72,74.52,50.06,101.06,32.09,30.06,69,45.29,109.79,45.29a186.74,186.74,0,0,0,48.77-6.82,23.86,23.86,0,0,0,9.6-5,22.43,22.43,0,0,0,7.5-17.34v-1.38c-.06-19.17-.07-38.65-.07-57.5Q464.45,586.13,464.44,571.84Zm-22,91.5q-2.82.76-5.63,1.44T431.23,666l-2.56.51c-.86.17-1.71.32-2.56.47l-.82.14-2.58.43-2.56.38q-2.56.36-5.1.63l-.58.07c-1.72.18-3.43.33-5.14.45-3.59.26-7.14.39-10.67.39h0c-1.11,0-2.21,0-3.32,0s-2.16-.06-3.24-.11H392c-1.1-.06-2.19-.12-3.28-.2h0c-1.09-.08-2.18-.17-3.26-.27h0c-1.09-.1-2.17-.22-3.24-.35h0c-1.08-.13-2.15-.27-3.22-.42h0l-3.21-.51c-1.06-.18-2.13-.37-3.19-.58s-2.12-.42-3.17-.66-2.11-.47-3.16-.73-2.09-.54-3.13-.82q-3.14-.85-6.22-1.87c-1-.34-2-.69-3.07-1.05q-1.14-.4-2.28-.84c-.64-.24-1.28-.48-1.92-.74l-.38-.15c-.57-.22-1.14-.45-1.7-.69l-2.08-.88-2.07-.92-1.68-.78-.38-.18c-.68-.32-1.37-.65-2-1l-2-1-2.11-1.11c-.65-.35-1.29-.7-1.94-1.07s-1.39-.78-2.09-1.19l-1.74-1c-.78-.47-1.57-.95-2.35-1.44l-1.8-1.15c-1.32-.84-2.63-1.72-3.94-2.62-.94-.66-1.89-1.33-2.83-2l-1.41-1c-.94-.7-1.88-1.41-2.81-2.13-1.4-1.08-2.79-2.2-4.17-3.34-.92-.76-1.84-1.54-2.75-2.33q-2.74-2.37-5.45-4.9c-25.77-24.14-40-54.49-44.19-89.47a133,133,0,0,1-.84-15.46c-.07-33.43,0-66.85-.1-100.28V421.8c0-2.71.62-3.28,3.37-3.34,21.8-.45,41.85-6,58.3-21.17,9.26-8.55,15.24-19.15,19.09-31,.31-.95.58-1.91.87-2.87l.55.09v27.58c0,19.74,0,39.48-.06,59.22,0,2.53.62,3.26,3.16,3.26h.07q17.26-.09,34.54-.09,13.45,0,26.89.05c12.76,0,23.78,4.4,32,14.35a43.79,43.79,0,0,1,7.75,13.43,37.17,37.17,0,0,1-.07,24.57c-.42,1.25-.89,2.51-1.43,3.77-6.45,15.09-18.46,23.71-34.87,24.23L400,534h-.05l-6.89.12h-.18l-6.82.06-7.12,0c-12.18,0-24.36-.15-36.55-.17h-.83a6.67,6.67,0,0,0-.67.06l-.07,0-.13,0a2,2,0,0,0-.69.25l-.17.13a1.34,1.34,0,0,0-.33.44,1,1,0,0,0-.08.18,1.39,1.39,0,0,0-.06.19.65.65,0,0,0,0,.2.06.06,0,0,0,0,0,6.19,6.19,0,0,0,0,1.63c2.21,23.34,17.73,41.34,41.66,47.43l2.51.6,1.24.27c.83.17,1.66.34,2.48.49l1.24.21a73.26,73.26,0,0,0,10.59,1l1.48,0c15.68,0,30-5.46,42.77-17.35l1-1a5.31,5.31,0,0,1,.78-.53c.86.77.42,1.75.42,2.6,0,29.45,0,58.9.09,88.36,0,1.78-.44,2.76-1.56,3.4A6.62,6.62,0,0,1,442.45,663.34Z"/><path class="cls-3" d="M445.44,571c0,29.45,0,58.9.09,88.36,0,1.78-.44,2.76-1.56,3.4a6.62,6.62,0,0,1-1.52.58q-2.82.76-5.63,1.44T431.23,666l-2.56.51c-.86.17-1.71.32-2.56.47l-.82.14-2.58.43-2.56.38q-2.56.36-5.1.63l-.58.07c-1.72.18-3.43.33-5.14.45-3.59.26-7.14.39-10.67.39h0c-1.11,0-2.21,0-3.32,0s-2.16-.06-3.24-.11H392c-1.1-.06-2.19-.12-3.28-.2h0c-1.09-.08-2.18-.17-3.26-.27h0c-1.09-.1-2.17-.22-3.24-.35h0c-1.08-.13-2.15-.27-3.22-.42h0l-3.21-.51c-1.06-.18-2.13-.37-3.19-.58s-2.12-.42-3.17-.66-2.11-.47-3.16-.73-2.09-.54-3.13-.82q-3.14-.85-6.22-1.87c-1-.34-2-.69-3.07-1.05q-1.14-.4-2.28-.84c-.64-.24-1.28-.48-1.92-.74l-.38-.15c-.57-.22-1.14-.45-1.7-.69l-2.08-.88-2.07-.92-1.68-.78-.38-.18c-.68-.32-1.37-.65-2-1l-2-1-2.11-1.11c-.65-.35-1.29-.7-1.94-1.07s-1.39-.78-2.09-1.19l-1.74-1c-.78-.47-1.57-.95-2.35-1.44l-1.8-1.15c-1.32-.84-2.63-1.72-3.94-2.62-.94-.66-1.89-1.33-2.83-2l-1.41-1c-.94-.7-1.88-1.41-2.81-2.13-1.4-1.08-2.79-2.2-4.17-3.34-.92-.76-1.84-1.54-2.75-2.33q-2.74-2.37-5.45-4.9c-25.77-24.14-40-54.49-44.19-89.47a133,133,0,0,1-.84-15.46c-.07-33.43,0-66.85-.1-100.28V421.8c0-2.71.62-3.28,3.37-3.34,21.8-.45,41.85-6,58.3-21.17,9.26-8.55,15.24-19.15,19.09-31,.31-.95.58-1.91.87-2.87l.55.09v27.58c0,19.74,0,39.48-.06,59.22,0,2.53.62,3.26,3.16,3.26h.07q17.26-.09,34.54-.09,13.45,0,26.89.05c12.76,0,23.78,4.4,32,14.35a43.79,43.79,0,0,1,7.75,13.43q-.11,12.32-.07,24.57c-.42,1.25-.89,2.51-1.43,3.77-6.45,15.09-18.46,23.71-34.87,24.23L400,534h-.05l-6.89.12h-.18l-6.82.06-7.12,0c-12.18,0-24.36-.15-36.55-.17h-.83a6.67,6.67,0,0,0-.67.06l-.07,0-.13,0a2,2,0,0,0-.69.25l-.17.13a1.34,1.34,0,0,0-.33.44.49.49,0,0,0-.08.18,1.39,1.39,0,0,0-.06.19.65.65,0,0,0,0,.2.06.06,0,0,0,0,0,6.19,6.19,0,0,0,0,1.63c2.21,23.34,17.73,41.34,41.66,47.43l2.51.6,1.24.27c.83.18,1.66.34,2.48.49l1.24.21a73.26,73.26,0,0,0,10.59,1l1.48,0c15.68,0,30-5.46,42.77-17.35l1-1a5.31,5.31,0,0,1,.78-.53C445.88,569.17,445.44,570.15,445.44,571Z"/><path class="cls-3" d="M462.32,558.48c0-31.31-.41-62.63.13-93.93.41-23.13,4.6-45.65,16.65-65.91,13.79-23.21,34.34-35.59,61.37-37.19,3-.17,4,.47,4,3.76-.13,54.67.59,109.35-.27,164-.91,57.88-28,100.57-78.79,128.25-3.09,1.68-3.15,1.58-3.15-2v-97Z"/><path class="cls-1" d="M563.5,422.08c0-18.63-.11-37.9-.07-56.83a24.74,24.74,0,0,0-2-10.37,20.55,20.55,0,0,0-4.28-6.2,21.23,21.23,0,0,0-12.72-6.07V345c0,1.65-.2,2.47-1.34,2.78l-.2,0-.2,0a4.58,4.58,0,0,1-.56.06h-.7A104.68,104.68,0,0,0,526.27,349c-.8.11-1.6.24-2.39.38a83.31,83.31,0,0,0-23.15,7.45c-1,.48-1.93,1-2.89,1.5l-1.44.81c-.95.55-1.9,1.12-2.84,1.71-.47.29-.93.59-1.4.9-14.05,9.24-23,22.3-27.94,38.21-.52,1.66-1,3.34-1.45,5l-.54.1V389.86a128.73,128.73,0,0,0-12.52,29.49,160.84,160.84,0,0,0-5.48,30.18q-.63,7.13-.77,14.69-.15,8.5-.21,17a37.17,37.17,0,0,1-.07,24.57c0,8.24,0,16.43.07,24.51q0,4.44,0,9c0,3.38,0,6.78,0,10.17q0,3.54,0,7c-.06.64-.1,1.29-.1,2V569.9l1-1a5.31,5.31,0,0,1,.78-.53c.86.77.42,1.75.42,2.6,0,29.45,0,58.9.09,88.36,0,1.78-.44,2.76-1.56,3.4A19.53,19.53,0,0,0,457,676.64a19.89,19.89,0,0,0,5.91.89,23.16,23.16,0,0,0,11.52-3.37c28.38-15.46,50.31-35.47,65.18-59.49,15.1-24.39,23-53,23.52-85.16C563.72,493.65,563.61,457.27,563.5,422.08Zm-19,75.31q0,7.85-.13,15.68v.34c0,.37,0,.73,0,1.1l0,2q-.08,6.38-.17,12.76c-.91,57.88-28,100.57-78.79,128.25l-.84.45a4.26,4.26,0,0,1-1.59.61.56.56,0,0,1-.23,0,.52.52,0,0,1-.17-.13.58.58,0,0,1-.13-.22,1.31,1.31,0,0,1-.09-.33l0-.19c0-.14,0-.29,0-.46s0-.36,0-.57,0-.67,0-1.07v-97h.1q0-6.22,0-12.46t0-12.46q0-6.34-.05-12.68,0-3.06,0-6.13c0-2,0-4.08,0-6.12,0-2.49,0-5,0-7.46V500q0-4.33,0-8.67c0-1,0-2,0-3,0-3.3,0-6.61.08-9.91v0q0-2.73.06-5.46,0-4.2.12-8.4c0-.88,0-1.77.07-2.65,0-.45,0-.89,0-1.33l.06-1.32c0-.67.06-1.33.1-2v-.1c0-.13,0-.27,0-.4.05-.93.11-1.85.18-2.78l.21-2.62c.08-.88.16-1.75.25-2.62s.17-1.58.26-2.37c0-.06,0-.12,0-.18a.88.88,0,0,0,0-.17c.11-.83.21-1.67.33-2.5.24-1.73.5-3.45.8-5.17.13-.78.28-1.55.42-2.32,0,0,0-.06,0-.09a2.33,2.33,0,0,0,.05-.28l.06-.28c.14-.69.27-1.36.42-2.05,0-.05,0-.11,0-.18.08-.41.18-.82.27-1.23s.19-.83.28-1.24q.25-1.11.54-2.22t.6-2.28c.1-.35.19-.7.29-1.05,0-.06,0-.12.05-.18s0-.11.05-.16c.13-.45.27-.9.4-1.35l.09-.32c.38-1.24.77-2.48,1.19-3.71,0-.08.05-.16.08-.24l.45-1.28c.2-.58.41-1.15.62-1.73l.62-1.61c.12-.32.25-.63.38-1,.35-.89.73-1.78,1.11-2.67.25-.6.52-1.2.79-1.79s.46-1,.7-1.52c.4-.86.82-1.71,1.24-2.55.11-.22.22-.44.34-.66q.33-.66.69-1.32l.06-.11c.19-.36.38-.72.58-1.08l.07-.13.11-.2c.26-.48.54-1,.81-1.44s.57-1,.86-1.48c13.8-23.21,34.34-35.59,61.38-37.19l.81,0a5.33,5.33,0,0,1,1.48.17,1.69,1.69,0,0,1,.27.1,1.11,1.11,0,0,1,.19.09l.07,0a1.7,1.7,0,0,1,.23.17,1.57,1.57,0,0,1,.19.18,1.08,1.08,0,0,1,.18.24,1.17,1.17,0,0,1,.15.27,2.44,2.44,0,0,1,.1.24,6.75,6.75,0,0,1,.28,2.28v1.57C544.34,410.32,544.77,453.86,544.5,497.39Z"/></svg>